<svg width="163" height="58" viewBox="0 0 163 58" fill="none" xmlns="http://www.w3.org/2000/svg">
<path d="M88.6953 55.627C88.8516 55.1191 88.9883 54.2598 89.1055 53.0488C89.2617 51.877 89.3789 50.6855 89.457 49.4746C89.5742 48.0684 89.6719 46.5449 89.75 44.9043C89.8672 43.6934 89.9648 42.1699 90.043 40.334C90.1211 38.498 90.1797 36.5449 90.2188 34.4746C90.2578 32.4043 90.2773 30.3145 90.2773 28.2051C90.2773 26.0566 90.2578 24.0645 90.2188 22.2285C90.1797 20.3926 90.1016 18.8105 89.9844 17.4824C89.9062 16.1543 89.7891 15.2559 89.6328 14.7871C90.375 14.3574 91.0391 14.0449 91.625 13.8496C92.2109 13.6543 92.7188 13.5176 93.1484 13.4395C93.6172 13.3223 94.0469 13.2832 94.4375 13.3223C94.75 13.3613 95.0625 13.4199 95.375 13.498C95.6484 13.5762 95.9023 13.6934 96.1367 13.8496C96.3711 13.9668 96.5469 14.1426 96.6641 14.377C96.5859 16.8379 96.4883 19.3184 96.3711 21.8184C96.293 24.2793 96.1953 26.5449 96.0781 28.6152C95.9219 31.0371 95.7656 33.3613 95.6094 35.5879C95.4922 37.9316 95.375 39.9629 95.2578 41.6816C95.1797 43.3613 95.1016 44.8457 95.0234 46.1348C94.9453 47.3848 94.8867 48.5176 94.8477 49.5332C94.8086 50.5098 94.7891 51.4863 94.7891 52.4629C95.7266 52.2676 96.8398 52.0527 98.1289 51.8184C99.418 51.5449 100.883 51.2715 102.523 50.998C104.086 50.7637 105.395 50.7051 106.449 50.8223C107.504 50.9004 108.344 51.1348 108.969 51.5254C109.594 51.877 110.023 52.3262 110.258 52.873C110.492 53.459 110.59 54.1035 110.551 54.8066C110.473 55.5879 110.414 56.1934 110.375 56.623C110.336 57.0527 110.316 57.3848 110.316 57.6191C109.887 57.3457 109.301 57.1504 108.559 57.0332C107.816 56.916 107.074 56.8184 106.332 56.7402C105.473 56.6621 104.574 56.6426 103.637 56.6816C102.621 56.7207 101.508 56.7988 100.297 56.916C99.2812 56.9941 98.0898 57.1113 96.7227 57.2676C95.3555 57.4238 93.9297 57.6582 92.4453 57.9707C91.3906 57.2285 90.5117 56.6426 89.8086 56.2129C89.3789 55.9785 89.0078 55.7832 88.6953 55.627Z" fill="white"/>
<path d="M111.312 31.9551C111.312 31.7207 111.625 31.4668 112.25 31.1934C112.875 30.9199 113.559 30.7051 114.301 30.5488C115.082 30.3535 115.785 30.2559 116.41 30.2559C117.074 30.2168 117.406 30.3535 117.406 30.666C117.406 31.252 117.367 32.0918 117.289 33.1855C117.211 34.2402 117.113 35.373 116.996 36.584C116.879 37.7559 116.762 38.9473 116.645 40.1582C116.527 41.3301 116.449 42.3262 116.41 43.1465C116.332 44.0059 116.254 44.9434 116.176 45.959C116.098 46.8184 116.039 47.7754 116 48.8301C115.961 49.8848 115.961 50.959 116 52.0527C116 52.248 115.805 52.4434 115.414 52.6387C115.023 52.834 114.594 52.9707 114.125 53.0488C113.656 53.166 113.207 53.2246 112.777 53.2246C112.348 53.2246 112.113 53.1465 112.074 52.9902C111.996 52.834 111.918 52.5605 111.84 52.1699C111.762 51.7793 111.684 51.2324 111.605 50.5293C111.527 49.7871 111.469 48.8496 111.43 47.7168C111.391 46.5449 111.41 45.1387 111.488 43.498C111.645 40.2559 111.664 37.7559 111.547 35.998C111.43 34.2012 111.352 32.8535 111.312 31.9551ZM115.414 20.2949C116.195 20.2949 116.938 20.5293 117.641 20.998C118.344 21.4668 118.695 22.0918 118.695 22.873C118.695 23.459 118.539 24.0254 118.227 24.5723C117.953 25.1191 117.602 25.6074 117.172 26.0371C116.742 26.4668 116.254 26.8184 115.707 27.0918C115.16 27.3262 114.652 27.4434 114.184 27.4434C113.559 27.4434 113.051 27.3457 112.66 27.1504C112.27 26.916 111.957 26.6621 111.723 26.3887C111.527 26.0762 111.391 25.7441 111.312 25.3926C111.234 25.041 111.195 24.709 111.195 24.3965C111.195 24.0059 111.254 23.5762 111.371 23.1074C111.488 22.5996 111.703 22.1504 112.016 21.7598C112.328 21.3301 112.758 20.9785 113.305 20.7051C113.852 20.4316 114.555 20.2949 115.414 20.2949ZM113.949 25.7441C114.184 25.7441 114.438 25.666 114.711 25.5098C115.023 25.3145 115.297 25.0996 115.531 24.8652C115.805 24.6309 116.02 24.377 116.176 24.1035C116.371 23.8301 116.469 23.5957 116.469 23.4004C116.469 23.0879 116.312 22.9316 116 22.9316C115.805 22.9316 115.551 23.0098 115.238 23.166C114.965 23.3223 114.691 23.5176 114.418 23.752C114.145 23.9473 113.91 24.1816 113.715 24.4551C113.559 24.6895 113.48 24.9238 113.48 25.1582C113.48 25.5488 113.637 25.7441 113.949 25.7441Z" fill="white"/>
<path d="M130.707 41.5645C131.566 41.877 132.387 42.1699 133.168 42.4434C133.949 42.7168 134.633 43.0488 135.219 43.4395C135.805 43.8301 136.273 44.2988 136.625 44.8457C136.977 45.3535 137.152 45.998 137.152 46.7793C137.152 47.7168 136.938 48.5957 136.508 49.416C136.117 50.2363 135.531 50.959 134.75 51.584C133.969 52.209 133.012 52.6973 131.879 53.0488C130.785 53.4395 129.555 53.6348 128.188 53.6348C126.664 53.6348 125.434 53.4785 124.496 53.166C123.559 52.8926 122.836 52.5605 122.328 52.1699C121.82 51.7793 121.488 51.3887 121.332 50.998C121.176 50.6074 121.098 50.2949 121.098 50.0605C121.098 49.5918 121.195 49.084 121.391 48.5371C121.586 47.9512 121.957 47.3262 122.504 46.6621C122.738 46.3887 122.992 46.1348 123.266 45.9004C123.812 45.4316 124.359 45.1387 124.906 45.0215C124.828 45.9199 124.926 46.6621 125.199 47.248C125.512 47.7949 125.902 48.2246 126.371 48.5371C126.879 48.8496 127.426 49.0645 128.012 49.1816C128.637 49.2988 129.223 49.3574 129.77 49.3574C130.316 49.3574 130.863 49.2793 131.41 49.123C131.996 48.9668 132.523 48.7715 132.992 48.5371C133.461 48.2637 133.832 47.9707 134.105 47.6582C134.418 47.3066 134.574 46.9355 134.574 46.5449C134.574 46.1152 134.398 45.7637 134.047 45.4902C133.695 45.2168 133.246 45.002 132.699 44.8457C132.191 44.6504 131.625 44.5137 131 44.4355C130.414 44.3184 129.848 44.2012 129.301 44.084C128.754 43.9668 128.012 43.8105 127.074 43.6152C126.176 43.3809 125.277 43.0293 124.379 42.5605C123.52 42.0918 122.758 41.4668 122.094 40.6855C121.469 39.9043 121.156 38.8691 121.156 37.5801C121.156 36.0957 121.527 34.8066 122.27 33.7129C123.051 32.5801 123.988 31.6426 125.082 30.9004C126.215 30.1191 127.406 29.5332 128.656 29.1426C129.906 28.752 131.02 28.5566 131.996 28.5566C132.504 28.5566 133.051 28.6348 133.637 28.791C134.223 28.9082 134.77 29.1426 135.277 29.4941C135.785 29.8066 136.195 30.2363 136.508 30.7832C136.859 31.3301 137.035 32.0332 137.035 32.8926C137.035 33.752 136.957 34.4551 136.801 35.002C136.684 35.5098 136.488 35.9199 136.215 36.2324C135.98 36.5059 135.688 36.6816 135.336 36.7598C134.984 36.8379 134.574 36.877 134.105 36.877C133.793 36.877 133.5 36.8379 133.227 36.7598C132.992 36.6816 132.738 36.6035 132.465 36.5254C132.191 36.4473 131.938 36.3105 131.703 36.1152C132.094 35.6465 132.387 35.1973 132.582 34.7676C132.816 34.3379 132.934 33.8105 132.934 33.1855C132.934 32.6387 132.777 32.1504 132.465 31.7207C132.191 31.291 131.723 31.0762 131.059 31.0762C130.355 31.0762 129.672 31.2129 129.008 31.4863C128.383 31.7598 127.816 32.1309 127.309 32.5996C126.84 33.0684 126.449 33.6152 126.137 34.2402C125.863 34.8262 125.727 35.4707 125.727 36.1738C125.727 37.2285 126.117 38.2246 126.898 39.1621C127.719 40.0996 128.988 40.9004 130.707 41.5645Z" fill="white"/>
<path d="M162.582 26.623C162.152 26.5449 161.566 26.4668 160.824 26.3887C160.121 26.3105 159.398 26.252 158.656 26.2129C157.797 26.1738 156.879 26.1543 155.902 26.1543C154.926 26.0762 153.695 26.0762 152.211 26.1543C150.766 26.1934 149.242 26.2129 147.641 26.2129C147.602 27.2285 147.523 28.2637 147.406 29.3184C147.328 30.373 147.25 31.4082 147.172 32.4238C146.977 34.2988 146.801 36.2129 146.645 38.166C146.527 40.1191 146.469 41.9746 146.469 43.7324C146.469 45.4902 146.566 47.0918 146.762 48.5371C146.996 49.9434 147.406 51.0566 147.992 51.877C147.523 52.2285 147.016 52.502 146.469 52.6973C145.922 52.8535 145.434 52.9707 145.004 53.0488C144.496 53.166 143.988 53.2246 143.48 53.2246C143.012 53.2246 142.621 53.0684 142.309 52.7559C141.996 52.4434 141.82 51.8965 141.781 51.1152C141.703 49.7871 141.684 48.459 141.723 47.1309C141.801 45.7637 141.879 44.3379 141.957 42.8535C142.074 41.3691 142.191 39.7871 142.309 38.1074C142.426 36.3887 142.543 34.5137 142.66 32.4824C142.777 30.373 142.836 28.3223 142.836 26.3301C141.352 26.3691 140.102 26.3887 139.086 26.3887C138.07 26.3887 137.504 26.3691 137.387 26.3301C137.27 26.252 137.133 26.0762 136.977 25.8027C136.82 25.5684 136.625 25.2168 136.391 24.748C136.117 24.2793 135.785 23.6152 135.395 22.7559C136.137 22.7559 136.957 22.7559 137.855 22.7559C138.715 22.7559 139.516 22.7363 140.258 22.6973C141.117 22.6582 141.977 22.6191 142.836 22.5801C142.797 21.9551 142.777 21.291 142.777 20.5879C142.738 20.041 142.719 19.4355 142.719 18.7715C142.719 18.0684 142.699 17.4238 142.66 16.8379C142.66 16.6035 142.934 16.3301 143.48 16.0176C144.066 15.666 144.691 15.3535 145.355 15.0801C146.02 14.8066 146.625 14.6309 147.172 14.5527C147.758 14.4746 148.051 14.6113 148.051 14.9629C148.051 15.3145 148.031 16.1738 147.992 17.541C147.992 18.8691 147.953 20.4902 147.875 22.4043C148.266 22.4043 148.559 22.3848 148.754 22.3457C150.824 22.2676 152.484 22.1895 153.734 22.1113C155.023 21.9941 156.078 21.9746 156.898 22.0527C157.719 22.1309 158.441 22.3262 159.066 22.6387C159.691 22.9512 160.395 23.459 161.176 24.1621C161.449 24.3965 161.684 24.6504 161.879 24.9238C162.074 25.1582 162.23 25.4316 162.348 25.7441C162.504 26.0176 162.582 26.3105 162.582 26.623Z" fill="white"/>
<path d="M0.9375 7.5293C0.742188 7.29492 0.585938 7.02148 0.46875 6.70898C0.351562 6.39648 0.253906 6.08398 0.175781 5.77148C0.0976562 5.41992 0.0390625 5.06836 0 4.7168V3.7207C0 3.44727 0.0195312 3.19336 0.0585938 2.95898C0.0976562 2.68555 0.195312 2.4707 0.351562 2.31445C1.5625 2.00195 2.87109 1.76758 4.27734 1.61133C5.68359 1.41602 7.01172 1.24023 8.26172 1.08398C9.70703 0.927734 11.1328 0.791016 12.5391 0.673828C12.9297 0.400391 13.2812 0.205078 13.5938 0.0878906C13.9062 -0.0292969 14.1602 -0.0292969 14.3555 0.0878906C14.4336 0.0878906 14.5117 0.244141 14.5898 0.556641H14.8242C16.2305 0.517578 17.5781 0.478516 18.8672 0.439453C19.9609 0.400391 21.0352 0.400391 22.0898 0.439453C23.1836 0.439453 24.0234 0.458984 24.6094 0.498047C24.9219 0.537109 25.1562 0.771484 25.3125 1.20117C25.4688 1.63086 25.5078 2.17773 25.4297 2.8418C25.3906 3.50586 25.2148 4.22852 24.9023 5.00977C24.5898 5.79102 24.082 6.5332 23.3789 7.23633C22.4805 7.00195 21.543 6.8457 20.5664 6.76758C19.5898 6.65039 18.7109 6.55273 17.9297 6.47461C16.9531 6.39648 16.0352 6.35742 15.1758 6.35742H14.8828C14.9219 7.91992 14.9414 9.6582 14.9414 11.5723C14.9414 13.4473 14.9219 15.3613 14.8828 17.3145C14.8828 19.2285 14.8633 21.123 14.8242 22.998C14.7852 24.834 14.7461 26.4746 14.707 27.9199C14.707 30.2246 14.707 32.2168 14.707 33.8965C14.707 35.5371 14.7656 36.9434 14.8828 38.1152C15 39.248 15.1758 40.166 15.4102 40.8691C15.6445 41.5723 15.9766 42.1387 16.4062 42.5684C16.3672 42.6074 16.25 42.7246 16.0547 42.9199C15.8984 43.1543 15.6641 43.3887 15.3516 43.623C15.0781 43.8574 14.7266 44.0723 14.2969 44.2676C13.9062 44.4629 13.457 44.541 12.9492 44.502C11.6602 44.4629 10.7031 44.0332 10.0781 43.2129C9.45312 42.3926 9.02344 41.2402 8.78906 39.7559C8.55469 38.2715 8.45703 36.4746 8.49609 34.3652C8.57422 32.2559 8.69141 29.8535 8.84766 27.1582C8.96484 25.3223 9.0625 23.4277 9.14062 21.4746C9.25781 19.5215 9.35547 17.6465 9.43359 15.8496C9.55078 14.0137 9.64844 12.3145 9.72656 10.752C9.80469 9.15039 9.88281 7.76367 9.96094 6.5918C8.98438 6.63086 7.98828 6.70898 6.97266 6.82617C6.07422 6.9043 5.09766 7.00195 4.04297 7.11914C2.98828 7.23633 1.95312 7.37305 0.9375 7.5293Z" fill="white"/>
<path d="M38.9648 36.709C39.043 36.9824 39.1602 37.2363 39.3164 37.4707C39.4336 37.666 39.5898 37.8613 39.7852 38.0566C40.0195 38.2129 40.293 38.3105 40.6055 38.3496C40.332 38.8965 40.0586 39.2676 39.7852 39.4629C39.6289 39.5801 39.4922 39.6582 39.375 39.6973C39.0234 39.8145 38.4961 39.873 37.793 39.873C37.0898 39.873 36.4062 39.6582 35.7422 39.2285C35.5078 39.0332 35.293 38.7402 35.0977 38.3496C34.9023 38.0371 34.7266 37.6074 34.5703 37.0605C34.4531 36.4746 34.3555 35.7324 34.2773 34.834C33.7305 36.0059 33.1055 36.9434 32.4023 37.6465C31.7383 38.3105 31.0742 38.7988 30.4102 39.1113C29.668 39.541 28.9062 39.7949 28.125 39.873C27.1484 39.9512 26.2109 39.7949 25.3125 39.4043C24.4531 38.9746 23.7109 38.3496 23.0859 37.5293C22.5 36.6699 22.0508 35.6348 21.7383 34.4238C21.4258 33.2129 21.3281 31.8457 21.4453 30.3223C21.5625 28.7207 21.875 27.2949 22.3828 26.0449C22.8906 24.7949 23.4961 23.6816 24.1992 22.7051C24.9023 21.7285 25.6445 20.9082 26.4258 20.2441C27.207 19.541 27.9492 18.9746 28.6523 18.5449C29.3945 18.0762 30.0195 17.7441 30.5273 17.5488C31.0742 17.3145 31.4258 17.1777 31.582 17.1387C32.0117 17.0215 32.3828 16.9824 32.6953 17.0215C33.0078 17.0605 33.2812 17.2363 33.5156 17.5488C33.5938 17.666 33.6914 17.8027 33.8086 17.959C33.8867 18.1152 33.9844 18.3301 34.1016 18.6035C34.2188 18.8379 34.3164 19.1113 34.3945 19.4238C33.457 19.8535 32.5781 20.3418 31.7578 20.8887C30.9375 21.3965 30.1758 22.0215 29.4727 22.7637C28.8086 23.5059 28.2227 24.4043 27.7148 25.459C27.207 26.5137 26.8164 27.8027 26.543 29.3262C26.1523 31.2402 26.25 32.7832 26.8359 33.9551C27.4609 35.127 28.3008 35.6152 29.3555 35.4199C29.9805 35.2246 30.5859 34.8535 31.1719 34.3066C31.6797 33.8379 32.207 33.1348 32.7539 32.1973C33.3398 31.2598 33.8867 29.9707 34.3945 28.3301C34.5898 25.9863 34.7461 24.1504 34.8633 22.8223C35.0195 21.4551 35.1562 20.4199 35.2734 19.7168C35.4297 18.8965 35.5469 18.3496 35.625 18.0762C35.7422 17.8809 35.9766 17.7051 36.3281 17.5488C36.6797 17.3535 37.0703 17.1973 37.5 17.0801C37.9297 16.9629 38.3203 16.9043 38.6719 16.9043C39.0234 16.8652 39.2578 16.8652 39.375 16.9043C39.4531 16.9434 39.4922 17.4316 39.4922 18.3691C39.4922 19.2676 39.4531 20.4199 39.375 21.8262C39.3359 23.1934 39.2773 24.6973 39.1992 26.3379C39.1211 27.9395 39.043 29.4629 38.9648 30.9082C38.9258 32.3535 38.8867 33.623 38.8477 34.7168C38.8477 35.7715 38.8867 36.4355 38.9648 36.709Z" fill="white"/>
<path d="M53.2617 28.5645C54.1211 28.877 54.9414 29.1699 55.7227 29.4434C56.5039 29.7168 57.1875 30.0488 57.7734 30.4395C58.3594 30.8301 58.8281 31.2988 59.1797 31.8457C59.5312 32.3535 59.707 32.998 59.707 33.7793C59.707 34.7168 59.4922 35.5957 59.0625 36.416C58.6719 37.2363 58.0859 37.959 57.3047 38.584C56.5234 39.209 55.5664 39.6973 54.4336 40.0488C53.3398 40.4395 52.1094 40.6348 50.7422 40.6348C49.2188 40.6348 47.9883 40.4785 47.0508 40.166C46.1133 39.8926 45.3906 39.5605 44.8828 39.1699C44.375 38.7793 44.043 38.3887 43.8867 37.998C43.7305 37.6074 43.6523 37.2949 43.6523 37.0605C43.6523 36.5918 43.75 36.084 43.9453 35.5371C44.1406 34.9512 44.5117 34.3262 45.0586 33.6621C45.293 33.3887 45.5469 33.1348 45.8203 32.9004C46.3672 32.4316 46.9141 32.1387 47.4609 32.0215C47.3828 32.9199 47.4805 33.6621 47.7539 34.248C48.0664 34.7949 48.457 35.2246 48.9258 35.5371C49.4336 35.8496 49.9805 36.0645 50.5664 36.1816C51.1914 36.2988 51.7773 36.3574 52.3242 36.3574C52.8711 36.3574 53.418 36.2793 53.9648 36.123C54.5508 35.9668 55.0781 35.7715 55.5469 35.5371C56.0156 35.2637 56.3867 34.9707 56.6602 34.6582C56.9727 34.3066 57.1289 33.9355 57.1289 33.5449C57.1289 33.1152 56.9531 32.7637 56.6016 32.4902C56.25 32.2168 55.8008 32.002 55.2539 31.8457C54.7461 31.6504 54.1797 31.5137 53.5547 31.4355C52.9688 31.3184 52.4023 31.2012 51.8555 31.084C51.3086 30.9668 50.5664 30.8105 49.6289 30.6152C48.7305 30.3809 47.832 30.0293 46.9336 29.5605C46.0742 29.0918 45.3125 28.4668 44.6484 27.6855C44.0234 26.9043 43.7109 25.8691 43.7109 24.5801C43.7109 23.0957 44.082 21.8066 44.8242 20.7129C45.6055 19.5801 46.543 18.6426 47.6367 17.9004C48.7695 17.1191 49.9609 16.5332 51.2109 16.1426C52.4609 15.752 53.5742 15.5566 54.5508 15.5566C55.0586 15.5566 55.6055 15.6348 56.1914 15.791C56.7773 15.9082 57.3242 16.1426 57.832 16.4941C58.3398 16.8066 58.75 17.2363 59.0625 17.7832C59.4141 18.3301 59.5898 19.0332 59.5898 19.8926C59.5898 20.752 59.5117 21.4551 59.3555 22.002C59.2383 22.5098 59.043 22.9199 58.7695 23.2324C58.5352 23.5059 58.2422 23.6816 57.8906 23.7598C57.5391 23.8379 57.1289 23.877 56.6602 23.877C56.3477 23.877 56.0547 23.8379 55.7812 23.7598C55.5469 23.6816 55.293 23.6035 55.0195 23.5254C54.7461 23.4473 54.4922 23.3105 54.2578 23.1152C54.6484 22.6465 54.9414 22.1973 55.1367 21.7676C55.3711 21.3379 55.4883 20.8105 55.4883 20.1855C55.4883 19.6387 55.332 19.1504 55.0195 18.7207C54.7461 18.291 54.2773 18.0762 53.6133 18.0762C52.9102 18.0762 52.2266 18.2129 51.5625 18.4863C50.9375 18.7598 50.3711 19.1309 49.8633 19.5996C49.3945 20.0684 49.0039 20.6152 48.6914 21.2402C48.418 21.8262 48.2812 22.4707 48.2812 23.1738C48.2812 24.2285 48.6719 25.2246 49.4531 26.1621C50.2734 27.0996 51.543 27.9004 53.2617 28.5645Z" fill="white"/>
<path d="M74.9414 25.6934C75.7617 26.0449 76.543 26.6113 77.2852 27.3926C78.0273 28.1348 78.4961 29.2676 78.6914 30.791C78.8477 32.1191 79.0625 33.3105 79.3359 34.3652C79.6094 35.4199 80 36.377 80.5078 37.2363C81.0156 38.0566 81.6797 38.7988 82.5 39.4629C83.3594 40.0879 84.4531 40.6348 85.7812 41.1035C85.4297 41.416 85 41.6699 84.4922 41.8652C84.0234 42.0605 83.5742 42.1973 83.1445 42.2754C82.6367 42.4316 82.1094 42.5098 81.5625 42.5098C80.2734 42.627 79.2188 42.4512 78.3984 41.9824C77.5781 41.5527 76.9336 40.9082 76.4648 40.0488C75.9961 39.1895 75.6445 38.1934 75.4102 37.0605C75.1758 35.9277 75 34.7559 74.8828 33.5449C74.8438 33.0371 74.7852 32.5098 74.707 31.9629C74.6289 31.416 74.4922 30.8887 74.2969 30.3809C74.1016 29.873 73.8281 29.4043 73.4766 28.9746C73.1641 28.5449 72.7539 28.2129 72.2461 27.9785C71.3867 28.6426 70.5859 29.2285 69.8438 29.7363C69.1406 30.2051 68.5156 30.5957 67.9688 30.9082C68.0078 33.0176 68.1055 34.7559 68.2617 36.123C68.457 37.4902 68.7109 38.4082 69.0234 38.877C68.75 39.0723 68.4766 39.248 68.2031 39.4043C67.9297 39.5215 67.6953 39.6191 67.5 39.6973C67.2266 39.8145 66.9727 39.8926 66.7383 39.9316C65.957 40.166 65.2539 40.127 64.6289 39.8145C64.043 39.541 63.7305 38.7793 63.6914 37.5293L63.3398 3.31055C63.3398 2.99805 63.6328 2.68555 64.2188 2.37305C64.8438 2.02148 65.5273 1.74805 66.2695 1.55273C67.0117 1.35742 67.6758 1.25977 68.2617 1.25977C68.8867 1.25977 69.1797 1.43555 69.1406 1.78711C69.0234 4.48242 68.9062 7.02148 68.7891 9.4043C68.6719 11.7871 68.5742 13.8965 68.4961 15.7324C68.3789 17.8809 68.2812 19.834 68.2031 21.5918C68.125 22.6465 68.0664 23.6621 68.0273 24.6387C68.0273 25.6152 68.0078 26.5527 67.9688 27.4512C68.7109 26.8652 69.4922 26.2207 70.3125 25.5176C71.1328 24.8145 71.9141 24.0332 72.6562 23.1738C73.3984 22.3145 74.0234 21.3965 74.5312 20.4199C75.0391 19.4043 75.332 18.3301 75.4102 17.1973C75.8398 16.8848 76.2695 16.6309 76.6992 16.4355C77.168 16.2012 77.5781 16.0254 77.9297 15.9082C78.3594 15.752 78.75 15.6738 79.1016 15.6738C80 15.6348 80.5273 15.8301 80.6836 16.2598C80.8008 16.5723 80.7812 17.041 80.625 17.666C80.5078 18.252 80.2148 18.9746 79.7461 19.834C79.3164 20.6543 78.7109 21.5723 77.9297 22.5879C77.1484 23.5645 76.1523 24.5996 74.9414 25.6934Z" fill="white"/>
</svg>
