<svg width="25" height="25" viewBox="0 0 25 25" fill="none" xmlns="http://www.w3.org/2000/svg">
<path fill-rule="evenodd" clip-rule="evenodd" d="M5.87752 23.3032C5.87752 23.3032 6.2499 25 8.16664 25H16.8333C18.75 25 19.1224 23.3032 19.1224 23.3032L20.8333 6.6667H4.16666L5.87752 23.3032ZM15.8333 9.16674C15.8333 8.70646 16.2064 8.33343 16.6667 8.33343C17.1269 8.33343 17.5001 8.70646 17.5001 9.16674L16.6667 21.6667C16.6667 22.127 16.2935 22.5001 15.8333 22.5001C15.3732 22.5001 15 22.1269 15 21.6667L15.8333 9.16674ZM11.6667 9.16674C11.6667 8.70646 12.0398 8.33343 12.5 8.33343C12.9603 8.33343 13.3333 8.70646 13.3333 9.16674V21.6667C13.3333 22.127 12.9603 22.5001 12.5 22.5001C12.0397 22.5001 11.6667 22.1269 11.6667 21.6667V9.16674ZM8.33332 8.33333C8.79361 8.33333 9.16664 8.70636 9.16664 9.16665L10 21.6666C10 22.1269 9.62692 22.5 9.16664 22.5C8.70645 22.5 8.33332 22.1268 8.33332 21.6666L7.50001 9.16674C7.50001 8.70646 7.87313 8.33333 8.33332 8.33333ZM20.3333 3.33466H16.6667V1.66672C16.6667 0.402457 16.2578 0 15 0H9.99995C8.84631 0 8.33332 0.558802 8.33332 1.66672V3.33475H4.6667C3.92977 3.33475 3.33334 3.89411 3.33334 4.58533C3.33334 5.27664 3.92977 5.836 4.6667 5.836H20.3333C21.0702 5.836 21.6666 5.27664 21.6666 4.58533C21.6666 3.89411 21.0702 3.33466 20.3333 3.33466ZM15 3.33466H10L10.0001 1.66663H15.0001V3.33466H15Z" fill="white"/>
</svg>
