<svg width="89" height="69" viewBox="0 0 89 69" fill="none" xmlns="http://www.w3.org/2000/svg">
<rect width="89" height="69" rx="22" fill="#612940"/>
<path d="M47.3701 46.3189C47.4412 46.0878 47.5035 45.6966 47.5568 45.1454C47.6279 44.6121 47.6813 44.0698 47.7168 43.5186C47.7702 42.8786 47.8146 42.1852 47.8502 41.4384C47.9035 40.8873 47.948 40.1939 47.9835 39.3582C48.0191 38.5226 48.0457 37.6336 48.0635 36.6913C48.0813 35.749 48.0902 34.7978 48.0902 33.8377C48.0902 32.8598 48.0813 31.9531 48.0635 31.1174C48.0457 30.2818 48.0102 29.5617 47.9568 28.9572C47.9213 28.3527 47.8679 27.9438 47.7968 27.7304C48.1346 27.5349 48.4369 27.3926 48.7036 27.3037C48.9703 27.2148 49.2014 27.1526 49.397 27.117C49.6103 27.0637 49.8059 27.0459 49.9837 27.0637C50.1259 27.0815 50.2682 27.1082 50.4104 27.1437C50.5349 27.1793 50.6504 27.2326 50.7571 27.3037C50.8638 27.3571 50.9438 27.4371 50.9971 27.5438C50.9616 28.6639 50.9171 29.7929 50.8638 30.9307C50.8282 32.0509 50.7838 33.0821 50.7304 34.0244C50.6593 35.1267 50.5882 36.1846 50.5171 37.198C50.4637 38.2648 50.4104 39.1893 50.3571 39.9716C50.3215 40.7361 50.286 41.4117 50.2504 41.9985C50.2148 42.5674 50.1882 43.083 50.1704 43.5453C50.1526 43.9898 50.1437 44.4343 50.1437 44.8787C50.5704 44.7899 51.0771 44.6921 51.6639 44.5854C52.2506 44.4609 52.9173 44.3365 53.6641 44.212C54.3752 44.1053 54.9708 44.0787 55.4509 44.132C55.9309 44.1676 56.3132 44.2742 56.5977 44.452C56.8821 44.6121 57.0777 44.8165 57.1844 45.0654C57.2911 45.3321 57.3355 45.6255 57.3177 45.9455C57.2822 46.3011 57.2555 46.5767 57.2377 46.7723C57.22 46.9678 57.2111 47.119 57.2111 47.2256C57.0155 47.1012 56.7488 47.0123 56.411 46.9589C56.0732 46.9056 55.7354 46.8612 55.3976 46.8256C55.0064 46.79 54.5975 46.7812 54.1708 46.7989C53.7085 46.8167 53.2018 46.8523 52.6506 46.9056C52.1884 46.9412 51.6461 46.9945 51.0238 47.0656C50.4015 47.1367 49.7526 47.2434 49.0769 47.3857C48.5969 47.0478 48.1969 46.7812 47.8768 46.5856C47.6813 46.4789 47.5124 46.39 47.3701 46.3189Z" fill="white"/>
<path d="M57.6644 35.5445C57.6644 35.4378 57.8067 35.3223 58.0911 35.1978C58.3756 35.0734 58.6868 34.9756 59.0246 34.9045C59.3802 34.8156 59.7002 34.7711 59.9847 34.7711C60.2869 34.7533 60.438 34.8156 60.438 34.9578C60.438 35.2245 60.4203 35.6067 60.3847 36.1046C60.3491 36.5846 60.3047 37.1002 60.2514 37.6514C60.198 38.1848 60.1447 38.727 60.0913 39.2782C60.038 39.8116 60.0024 40.265 59.9847 40.6383C59.9491 41.0295 59.9135 41.4562 59.878 41.9185C59.8424 42.3096 59.8158 42.7452 59.798 43.2253C59.7802 43.7053 59.7802 44.1942 59.798 44.6921C59.798 44.781 59.7091 44.8699 59.5313 44.9588C59.3535 45.0477 59.1579 45.1099 58.9446 45.1454C58.7312 45.1988 58.5267 45.2254 58.3312 45.2254C58.1356 45.2254 58.0289 45.1899 58.0111 45.1188C57.9756 45.0477 57.94 44.9232 57.9045 44.7454C57.8689 44.5676 57.8333 44.3187 57.7978 43.9987C57.7622 43.6609 57.7356 43.2341 57.7178 42.7185C57.7 42.1852 57.7089 41.5451 57.7444 40.7984C57.8156 39.3227 57.8245 38.1848 57.7711 37.3847C57.7178 36.5668 57.6822 35.9534 57.6644 35.5445ZM59.5313 30.2373C59.8869 30.2373 60.2247 30.344 60.5447 30.5574C60.8647 30.7707 61.0248 31.0552 61.0248 31.4108C61.0248 31.6775 60.9536 31.9353 60.8114 32.1842C60.687 32.4331 60.5269 32.6554 60.3314 32.8509C60.1358 33.0465 59.9135 33.2065 59.6646 33.331C59.4157 33.4377 59.1846 33.491 58.9712 33.491C58.6868 33.491 58.4556 33.4465 58.2778 33.3576C58.1 33.251 57.9578 33.1354 57.8511 33.0109C57.7622 32.8687 57.7 32.7176 57.6644 32.5576C57.6289 32.3976 57.6111 32.2464 57.6111 32.1042C57.6111 31.9264 57.6378 31.7308 57.6911 31.5175C57.7444 31.2863 57.8422 31.0819 57.9845 30.9041C58.1267 30.7085 58.3223 30.5485 58.5712 30.424C58.8201 30.2996 59.1401 30.2373 59.5313 30.2373ZM58.8646 32.7176C58.9712 32.7176 59.0868 32.682 59.2113 32.6109C59.3535 32.522 59.4779 32.4242 59.5846 32.3175C59.7091 32.2109 59.8069 32.0953 59.878 31.9708C59.9669 31.8464 60.0113 31.7397 60.0113 31.6508C60.0113 31.5086 59.9402 31.4375 59.798 31.4375C59.7091 31.4375 59.5935 31.473 59.4513 31.5441C59.3268 31.6153 59.2024 31.7042 59.0779 31.8108C58.9535 31.8997 58.8468 32.0064 58.7579 32.1309C58.6868 32.2375 58.6512 32.3442 58.6512 32.4509C58.6512 32.6287 58.7223 32.7176 58.8646 32.7176Z" fill="white"/>
<path d="M66.492 39.9183C66.8831 40.0605 67.2565 40.1939 67.6121 40.3183C67.9677 40.4428 68.2788 40.5939 68.5455 40.7717C68.8122 40.9495 69.0255 41.1628 69.1855 41.4117C69.3456 41.6429 69.4256 41.9362 69.4256 42.2918C69.4256 42.7185 69.3278 43.1186 69.1322 43.4919C68.9544 43.8653 68.6877 44.1942 68.3321 44.4787C67.9765 44.7632 67.5409 44.9854 67.0253 45.1454C66.5275 45.3232 65.9675 45.4121 65.3452 45.4121C64.6518 45.4121 64.0917 45.341 63.665 45.1988C63.2383 45.0743 62.9094 44.9232 62.6783 44.7454C62.4471 44.5676 62.296 44.3898 62.2249 44.212C62.1538 44.0342 62.1182 43.892 62.1182 43.7853C62.1182 43.572 62.1626 43.3408 62.2515 43.0919C62.3404 42.8252 62.5093 42.5407 62.7583 42.2385C62.8649 42.114 62.9805 41.9985 63.105 41.8918C63.3539 41.6784 63.6028 41.5451 63.8517 41.4918C63.8161 41.9007 63.8606 42.2385 63.985 42.5052C64.1273 42.7541 64.3051 42.9497 64.5184 43.0919C64.7496 43.2341 64.9985 43.3319 65.2652 43.3853C65.5496 43.4386 65.8163 43.4653 66.0652 43.4653C66.3142 43.4653 66.5631 43.4297 66.812 43.3586C67.0787 43.2875 67.3187 43.1986 67.5321 43.0919C67.7454 42.9675 67.9143 42.8341 68.0388 42.6919C68.181 42.5319 68.2521 42.363 68.2521 42.1852C68.2521 41.9896 68.1721 41.8296 68.0121 41.7051C67.8521 41.5807 67.6476 41.4829 67.3987 41.4117C67.1676 41.3229 66.9098 41.2606 66.6253 41.2251C66.3586 41.1717 66.1008 41.1184 65.8519 41.065C65.603 41.0117 65.2652 40.9406 64.8385 40.8517C64.4295 40.745 64.0206 40.585 63.6117 40.3716C63.2205 40.1583 62.8738 39.8738 62.5716 39.5182C62.2871 39.1626 62.1449 38.6915 62.1449 38.1048C62.1449 37.4291 62.3138 36.8424 62.6516 36.3446C63.0072 35.829 63.4339 35.4023 63.9317 35.0645C64.4473 34.7089 64.9896 34.4422 65.5585 34.2644C66.1275 34.0866 66.6342 33.9977 67.0787 33.9977C67.3098 33.9977 67.5587 34.0333 67.8254 34.1044C68.0921 34.1577 68.341 34.2644 68.5722 34.4244C68.8033 34.5666 68.99 34.7622 69.1322 35.0111C69.2922 35.26 69.3722 35.5801 69.3722 35.9712C69.3722 36.3624 69.3367 36.6824 69.2656 36.9313C69.2122 37.1625 69.1233 37.3491 68.9989 37.4914C68.8922 37.6158 68.7588 37.6958 68.5988 37.7314C68.4388 37.767 68.2521 37.7847 68.0388 37.7847C67.8965 37.7847 67.7632 37.767 67.6387 37.7314C67.5321 37.6958 67.4165 37.6603 67.292 37.6247C67.1676 37.5892 67.052 37.5269 66.9453 37.438C67.1231 37.2247 67.2565 37.0202 67.3454 36.8246C67.452 36.6291 67.5054 36.389 67.5054 36.1046C67.5054 35.8557 67.4343 35.6334 67.292 35.4378C67.1676 35.2423 66.9542 35.1445 66.652 35.1445C66.3319 35.1445 66.0208 35.2067 65.7185 35.3312C65.4341 35.4556 65.1763 35.6245 64.9451 35.8379C64.7318 36.0512 64.554 36.3001 64.4118 36.5846C64.2873 36.8513 64.2251 37.1447 64.2251 37.4647C64.2251 37.9447 64.4029 38.3981 64.7585 38.8248C65.1318 39.2515 65.7097 39.616 66.492 39.9183Z" fill="white"/>
<path d="M81 33.1176C80.8044 33.0821 80.5377 33.0465 80.1999 33.0109C79.8799 32.9754 79.551 32.9487 79.2132 32.9309C78.822 32.9132 78.4042 32.9043 77.9597 32.9043C77.5152 32.8687 76.9552 32.8687 76.2796 32.9043C75.6217 32.922 74.9283 32.9309 74.1994 32.9309C74.1816 33.3932 74.146 33.8644 74.0927 34.3444C74.0571 34.8245 74.0216 35.2956 73.986 35.7579C73.8971 36.6113 73.8171 37.4825 73.746 38.3715C73.6926 39.2604 73.666 40.105 73.666 40.905C73.666 41.7051 73.7104 42.4341 73.7993 43.0919C73.906 43.732 74.0927 44.2387 74.3594 44.6121C74.146 44.7721 73.9149 44.8965 73.666 44.9854C73.4171 45.0565 73.1948 45.1099 72.9992 45.1454C72.7681 45.1988 72.537 45.2254 72.3058 45.2254C72.0925 45.2254 71.9147 45.1543 71.7725 45.0121C71.6302 44.8699 71.5502 44.6209 71.5324 44.2654C71.4969 43.6609 71.488 43.0564 71.5058 42.4518C71.5413 41.8296 71.5769 41.1806 71.6124 40.505C71.6658 39.8294 71.7191 39.1093 71.7725 38.3448C71.8258 37.5625 71.8791 36.7091 71.9325 35.7845C71.9858 34.8245 72.0125 33.891 72.0125 32.9843C71.3369 33.0021 70.7679 33.0109 70.3057 33.0109C69.8434 33.0109 69.5856 33.0021 69.5322 32.9843C69.4789 32.9487 69.4167 32.8687 69.3456 32.7443C69.2744 32.6376 69.1855 32.4776 69.0789 32.2642C68.9544 32.0509 68.8033 31.7486 68.6255 31.3575C68.9633 31.3575 69.3367 31.3575 69.7456 31.3575C70.1367 31.3575 70.5012 31.3486 70.839 31.3308C71.2302 31.313 71.6213 31.2952 72.0125 31.2774C71.9947 30.993 71.9858 30.6907 71.9858 30.3707C71.968 30.1218 71.9591 29.8462 71.9591 29.5439C71.9591 29.2239 71.9503 28.9306 71.9325 28.6639C71.9325 28.5572 72.0569 28.4327 72.3058 28.2905C72.5725 28.1305 72.857 27.9882 73.1593 27.8638C73.4615 27.7393 73.7371 27.6593 73.986 27.6238C74.2527 27.5882 74.386 27.6504 74.386 27.8104C74.386 27.9705 74.3772 28.3616 74.3594 28.9839C74.3594 29.5884 74.3416 30.3262 74.306 31.1974C74.4838 31.1974 74.6172 31.1885 74.7061 31.1708C75.6484 31.1352 76.404 31.0996 76.973 31.0641C77.5597 31.0108 78.0397 31.0019 78.4131 31.0374C78.7865 31.073 79.1154 31.1619 79.3999 31.3041C79.6843 31.4463 80.0044 31.6775 80.36 31.9975C80.4844 32.1042 80.5911 32.2198 80.68 32.3442C80.7689 32.4509 80.84 32.5753 80.8933 32.7176C80.9645 32.842 81 32.9754 81 33.1176Z" fill="white"/>
<path d="M7.42671 24.427C7.33781 24.3203 7.26669 24.1959 7.21335 24.0536C7.16002 23.9114 7.11557 23.7692 7.08001 23.6269C7.04445 23.4669 7.01778 23.3069 7 23.1469V22.6935C7 22.569 7.00889 22.4535 7.02667 22.3468C7.04445 22.2223 7.0889 22.1246 7.16002 22.0534C7.71118 21.9112 8.30679 21.8045 8.94685 21.7334C9.58692 21.6445 10.1914 21.5645 10.7604 21.4934C11.4182 21.4223 12.0672 21.36 12.7072 21.3067C12.885 21.1822 13.045 21.0933 13.1873 21.04C13.3295 20.9867 13.4451 20.9867 13.534 21.04C13.5695 21.04 13.6051 21.1111 13.6406 21.2534H13.7473C14.3874 21.2356 15.0008 21.2178 15.5875 21.2C16.0853 21.1822 16.5743 21.1822 17.0543 21.2C17.5521 21.2 17.9344 21.2089 18.2011 21.2267C18.3433 21.2445 18.45 21.3511 18.5211 21.5467C18.5922 21.7423 18.61 21.9912 18.5744 22.2935C18.5567 22.5957 18.4767 22.9246 18.3344 23.2802C18.1922 23.6358 17.9611 23.9736 17.641 24.2936C17.2321 24.187 16.8054 24.1159 16.3609 24.0803C15.9164 24.027 15.5164 23.9825 15.1608 23.9469C14.7163 23.9114 14.2985 23.8936 13.9073 23.8936H13.774C13.7918 24.6048 13.8007 25.396 13.8007 26.2672C13.8007 27.1206 13.7918 27.9918 13.774 28.8808C13.774 29.752 13.7651 30.6143 13.7473 31.4677C13.7295 32.3033 13.7118 33.05 13.694 33.7079C13.694 34.7569 13.694 35.6636 13.694 36.4281C13.694 37.1749 13.7206 37.8149 13.774 38.3483C13.8273 38.8639 13.9073 39.2818 14.014 39.6018C14.1207 39.9218 14.2718 40.1796 14.4674 40.3752C14.4496 40.393 14.3963 40.4463 14.3074 40.5352C14.2363 40.6419 14.1296 40.7486 13.9873 40.8552C13.8629 40.9619 13.7029 41.0597 13.5073 41.1486C13.3295 41.2375 13.125 41.2731 12.8939 41.2553C12.3072 41.2375 11.8716 41.0419 11.5871 40.6686C11.3026 40.2952 11.1071 39.7707 11.0004 39.0951C10.8937 38.4195 10.8493 37.6016 10.867 36.6415C10.9026 35.6814 10.9559 34.588 11.0271 33.3612C11.0804 32.5256 11.1248 31.6632 11.1604 30.7743C11.2137 29.8853 11.2582 29.0319 11.2937 28.214C11.3471 27.3784 11.3915 26.605 11.4271 25.8938C11.4627 25.1648 11.4982 24.5337 11.5338 24.0003C11.0893 24.0181 10.6359 24.0536 10.1736 24.107C9.76471 24.1425 9.32022 24.187 8.84018 24.2403C8.36013 24.2936 7.88897 24.3559 7.42671 24.427Z" fill="white"/>
<path d="M24.735 37.7083C24.7706 37.8327 24.8239 37.9483 24.8951 38.055C24.9484 38.1439 25.0195 38.2328 25.1084 38.3217C25.2151 38.3928 25.3395 38.4372 25.4818 38.455C25.3573 38.7039 25.2329 38.8728 25.1084 38.9617C25.0373 39.0151 24.9751 39.0506 24.9217 39.0684C24.7617 39.1217 24.5217 39.1484 24.2017 39.1484C23.8816 39.1484 23.5705 39.0506 23.2682 38.855C23.1616 38.7662 23.0638 38.6328 22.9749 38.455C22.886 38.3128 22.806 38.1172 22.7348 37.8683C22.6815 37.6016 22.6371 37.2638 22.6015 36.8549C22.3526 37.3882 22.0681 37.8149 21.7481 38.135C21.4458 38.4372 21.1436 38.6595 20.8413 38.8017C20.5035 38.9973 20.1568 39.1129 19.8012 39.1484C19.3567 39.184 18.93 39.1129 18.5211 38.9351C18.13 38.7395 17.7921 38.455 17.5077 38.0816C17.241 37.6905 17.0365 37.2193 16.8943 36.6682C16.752 36.117 16.7076 35.4947 16.7609 34.8013C16.8143 34.0724 16.9565 33.4234 17.1876 32.8545C17.4188 32.2855 17.6944 31.7788 18.0144 31.3343C18.3344 30.8898 18.6722 30.5165 19.0278 30.2142C19.3834 29.8942 19.7212 29.6364 20.0413 29.4408C20.3791 29.2275 20.6635 29.0763 20.8947 28.9874C21.1436 28.8808 21.3036 28.8185 21.3747 28.8007C21.5703 28.7474 21.7392 28.7296 21.8814 28.7474C22.0237 28.7652 22.1481 28.8452 22.2548 28.9874C22.2904 29.0408 22.3348 29.103 22.3881 29.1741C22.4237 29.2452 22.4682 29.343 22.5215 29.4675C22.5748 29.5742 22.6193 29.6986 22.6548 29.8408C22.2281 30.0364 21.8281 30.2587 21.4547 30.5076C21.0814 30.7387 20.7347 31.0232 20.4146 31.361C20.1124 31.6988 19.8457 32.1077 19.6145 32.5878C19.3834 33.0678 19.2056 33.6545 19.0812 34.3479C18.9034 35.2191 18.9478 35.9214 19.2145 36.4548C19.499 36.9882 19.8812 37.2104 20.3613 37.1215C20.6458 37.0327 20.9213 36.8637 21.188 36.6148C21.4192 36.4015 21.6592 36.0814 21.9081 35.6547C22.1748 35.228 22.4237 34.6413 22.6548 33.8946C22.7437 32.8278 22.8149 31.9922 22.8682 31.3877C22.9393 30.7654 23.0015 30.2942 23.0549 29.9742C23.126 29.6008 23.1793 29.3519 23.2149 29.2275C23.2682 29.1386 23.3749 29.0586 23.5349 28.9874C23.6949 28.8985 23.8727 28.8274 24.0683 28.7741C24.2639 28.7207 24.4417 28.6941 24.6017 28.6941C24.7617 28.6763 24.8684 28.6763 24.9217 28.6941C24.9573 28.7119 24.9751 28.9341 24.9751 29.3608C24.9751 29.7697 24.9573 30.2942 24.9217 30.9343C24.9039 31.5566 24.8773 32.2411 24.8417 32.9878C24.8062 33.7168 24.7706 34.4102 24.735 35.068C24.7173 35.7259 24.6995 36.3037 24.6817 36.8015C24.6817 37.2816 24.6995 37.5838 24.735 37.7083Z" fill="white"/>
<path d="M31.2423 34.0012C31.6335 34.1435 32.0068 34.2768 32.3624 34.4013C32.718 34.5257 33.0292 34.6769 33.2959 34.8547C33.5626 35.0325 33.7759 35.2458 33.9359 35.4947C34.0959 35.7259 34.1759 36.0192 34.1759 36.3748C34.1759 36.8015 34.0782 37.2016 33.8826 37.5749C33.7048 37.9483 33.4381 38.2772 33.0825 38.5617C32.7269 38.8462 32.2913 39.0684 31.7757 39.2284C31.2779 39.4062 30.7178 39.4951 30.0956 39.4951C29.4022 39.4951 28.8421 39.424 28.4154 39.2818C27.9887 39.1573 27.6598 39.0062 27.4286 38.8284C27.1975 38.6506 27.0464 38.4728 26.9753 38.295C26.9041 38.1172 26.8686 37.975 26.8686 37.8683C26.8686 37.6549 26.913 37.4238 27.0019 37.1749C27.0908 36.9082 27.2597 36.6237 27.5086 36.3215C27.6153 36.197 27.7309 36.0814 27.8553 35.9748C28.1042 35.7614 28.3532 35.6281 28.6021 35.5747C28.5665 35.9837 28.611 36.3215 28.7354 36.5882C28.8777 36.8371 29.0555 37.0327 29.2688 37.1749C29.4999 37.3171 29.7489 37.4149 30.0155 37.4682C30.3 37.5216 30.5667 37.5483 30.8156 37.5483C31.0645 37.5483 31.3134 37.5127 31.5624 37.4416C31.8291 37.3705 32.0691 37.2816 32.2824 37.1749C32.4958 37.0504 32.6647 36.9171 32.7891 36.7748C32.9314 36.6148 33.0025 36.4459 33.0025 36.2681C33.0025 36.0726 32.9225 35.9125 32.7625 35.7881C32.6025 35.6636 32.398 35.5658 32.1491 35.4947C31.9179 35.4058 31.6601 35.3436 31.3757 35.308C31.109 35.2547 30.8512 35.2014 30.6023 35.148C30.3534 35.0947 30.0155 35.0236 29.5888 34.9347C29.1799 34.828 28.771 34.668 28.3621 34.4546C27.9709 34.2413 27.6242 33.9568 27.322 33.6012C27.0375 33.2456 26.8952 32.7745 26.8952 32.1877C26.8952 31.5121 27.0641 30.9254 27.402 30.4276C27.7575 29.912 28.1843 29.4853 28.6821 29.1474C29.1977 28.7919 29.74 28.5252 30.3089 28.3474C30.8778 28.1696 31.3846 28.0807 31.8291 28.0807C32.0602 28.0807 32.3091 28.1162 32.5758 28.1874C32.8425 28.2407 33.0914 28.3474 33.3225 28.5074C33.5537 28.6496 33.7403 28.8452 33.8826 29.0941C34.0426 29.343 34.1226 29.6631 34.1226 30.0542C34.1226 30.4454 34.087 30.7654 34.0159 31.0143C33.9626 31.2454 33.8737 31.4321 33.7492 31.5743C33.6426 31.6988 33.5092 31.7788 33.3492 31.8144C33.1892 31.8499 33.0025 31.8677 32.7891 31.8677C32.6469 31.8677 32.5136 31.8499 32.3891 31.8144C32.2824 31.7788 32.1669 31.7433 32.0424 31.7077C31.9179 31.6721 31.8024 31.6099 31.6957 31.521C31.8735 31.3077 32.0068 31.1032 32.0957 30.9076C32.2024 30.712 32.2558 30.472 32.2558 30.1875C32.2558 29.9386 32.1846 29.7164 32.0424 29.5208C31.9179 29.3252 31.7046 29.2275 31.4023 29.2275C31.0823 29.2275 30.7712 29.2897 30.4689 29.4141C30.1844 29.5386 29.9266 29.7075 29.6955 29.9209C29.4822 30.1342 29.3044 30.3831 29.1621 30.6676C29.0377 30.9343 28.9754 31.2276 28.9754 31.5477C28.9754 32.0277 29.1532 32.4811 29.5088 32.9078C29.8822 33.3345 30.46 33.699 31.2423 34.0012Z" fill="white"/>
<path d="M41.1099 32.6945C41.4833 32.8545 41.8389 33.1123 42.1767 33.4679C42.5145 33.8057 42.7279 34.3213 42.8168 35.0147C42.8879 35.6192 42.9857 36.1615 43.1101 36.6415C43.2346 37.1215 43.4124 37.5571 43.6435 37.9483C43.8747 38.3217 44.1769 38.6595 44.5503 38.9617C44.9414 39.2462 45.4392 39.4951 46.0438 39.7085C45.8837 39.8507 45.6882 39.9663 45.457 40.0552C45.2437 40.1441 45.0392 40.2063 44.8436 40.2418C44.6125 40.313 44.3725 40.3485 44.1236 40.3485C43.5368 40.4019 43.0568 40.3219 42.6834 40.1085C42.3101 39.9129 42.0167 39.6196 41.8033 39.2284C41.59 38.8373 41.43 38.3839 41.3233 37.8683C41.2166 37.3527 41.1366 36.8193 41.0833 36.2681C41.0655 36.037 41.0388 35.797 41.0033 35.5481C40.9677 35.2992 40.9055 35.0591 40.8166 34.828C40.7277 34.5969 40.6032 34.3835 40.4432 34.1879C40.301 33.9924 40.1143 33.8412 39.8832 33.7346C39.492 34.0368 39.1275 34.3035 38.7897 34.5346C38.4697 34.748 38.1852 34.9258 37.9363 35.068C37.9541 36.0281 37.9985 36.8193 38.0697 37.4416C38.1585 38.0639 38.2741 38.4817 38.4164 38.695C38.2919 38.7839 38.1674 38.8639 38.043 38.9351C37.9185 38.9884 37.8118 39.0328 37.723 39.0684C37.5985 39.1217 37.4829 39.1573 37.3763 39.1751C37.0207 39.2818 36.7006 39.264 36.4162 39.1217C36.1495 38.9973 36.0072 38.6506 35.9895 38.0816L35.8294 22.5068C35.8294 22.3646 35.9628 22.2223 36.2295 22.0801C36.5139 21.9201 36.8251 21.7956 37.1629 21.7067C37.5007 21.6178 37.803 21.5734 38.0697 21.5734C38.3541 21.5734 38.4875 21.6534 38.4697 21.8134C38.4164 23.0402 38.363 24.1959 38.3097 25.2804C38.2563 26.365 38.2119 27.3251 38.1763 28.1607C38.123 29.1386 38.0785 30.0275 38.043 30.8276C38.0074 31.3077 37.9808 31.7699 37.963 32.2144C37.963 32.6589 37.9541 33.0856 37.9363 33.4945C38.2741 33.2278 38.6297 32.9345 39.0031 32.6144C39.3764 32.2944 39.732 31.9388 40.0698 31.5477C40.4077 31.1565 40.6921 30.7387 40.9233 30.2942C41.1544 29.832 41.2877 29.343 41.3233 28.8274C41.5189 28.6852 41.7144 28.5696 41.91 28.4807C42.1234 28.374 42.3101 28.294 42.4701 28.2407C42.6656 28.1696 42.8434 28.134 43.0035 28.134C43.4124 28.1162 43.6524 28.2051 43.7235 28.4007C43.7769 28.5429 43.768 28.7563 43.6969 29.0408C43.6435 29.3075 43.5102 29.6364 43.2968 30.0275C43.1012 30.4009 42.8257 30.8187 42.4701 31.281C42.1145 31.7255 41.6611 32.1966 41.1099 32.6945Z" fill="white"/>
</svg>
